# xmcd
#
# Track frame offsets:
#	150
#	17611
#	38597
#	55643
#	72293
#	88271
#	104222
#	123026
#	137515
#	151758
#	174125
#	190017
#	207686
#	223141
#	239473
#	257779
#	272841
#	290698
#	309688
#
# Disc length: 4320
#
# Revision: 1
# Processed by: cddbd v1.5.1PL0 Copyright (c) Steve Scherf et al.
# Submitted via: FreeRIP 2.80 
# Normalized: r0:DSETVAR1
#
DISCID=1710de13
DTITLE=Various Artist - Saloon Tunes 29
DYEAR=1900
DGENRE=country
TTITLE0=Billy Ray Cyrus - You Won't Be Lonely Now
TTITLE1=Blackhawk - Ships Of Heaven
TTITLE2=Brad Paisley - We Danced
TTITLE3=Clint Black - Love She Can't Live Without
TTITLE4=Danni Leigh - I Don't Feel That Way Anymore
TTITLE5=John Anderson - You Ain't Hurt Nothin Yet
TTITLE6=Julian Austin - Forever loving You
TTITLE7=Kathy Mattea - B.F.D.
TTITLE8=Kim Richey - The Way It Never Was
TTITLE9=Merle Haggard - Motorcycle Cowboy
TTITLE10=Patty Loveless - That's The Kind Of Mood I'm In
TTITLE11=Phil Vassar - Just Another Day In Paradise
TTITLE12=Ronnie Milsap - Time Love and Money
TTITLE13=Sara Evans - Born To Fly
TTITLE14=Travis Tritt - Best Of Intentions
TTITLE15=Wade Hayes - Goodbye Is The Wrong Way To Go
TTITLE16=Yankee Grey - This Time Around
TTITLE17=Alabama - Mountian Music
TTITLE18=john Denver - Take Me Home Country Roads
EXTD=
EXTT0=
EXTT1=
EXTT2=
EXTT3=
EXTT4=
EXTT5=
EXTT6=
EXTT7=
EXTT8=
EXTT9=
EXTT10=
EXTT11=
EXTT12=
EXTT13=
EXTT14=
EXTT15=
EXTT16=
EXTT17=
EXTT18=
PLAYORDER=
